<svg width="102" height="103" viewBox="0 0 102 103" fill="none" xmlns="http://www.w3.org/2000/svg">
<path d="M97.4812 34.555C97.4812 39.2148 93.6686 43.0274 89.0087 43.0274C88.2777 43.0388 87.5492 42.9388 86.8483 42.7309L71.7673 57.7695C71.9791 58.4473 72.0638 59.2098 72.0638 59.9724C72.0638 64.6322 68.2512 68.4448 63.5914 68.4448C58.9315 68.4448 55.1189 64.6322 55.1189 59.9724C55.1189 59.2098 55.2036 58.4473 55.4154 57.7695L44.6131 46.9671C43.9353 47.1789 43.1727 47.2637 42.4102 47.2637C41.6477 47.2637 40.8852 47.1789 40.2074 46.9671L20.9325 66.2843C21.1443 66.9621 21.2291 67.6823 21.2291 68.4448C21.2291 73.1047 17.4165 76.9173 12.7566 76.9173C8.09676 76.9173 4.28415 73.1047 4.28415 68.4448C4.28415 63.785 8.09676 59.9724 12.7566 59.9724C13.5191 59.9724 14.2393 60.0571 14.9171 60.2689L34.2343 40.9941C34.0225 40.3163 33.9378 39.5537 33.9378 38.7912C33.9378 34.1314 37.7504 30.3187 42.4102 30.3187C47.0701 30.3187 50.8827 34.1314 50.8827 38.7912C50.8827 39.5537 50.798 40.3163 50.5861 40.9941L61.3885 51.7964C62.0663 51.5846 62.8288 51.4999 63.5914 51.4999C64.3539 51.4999 65.1164 51.5846 65.7942 51.7964L80.8328 36.7155C80.6249 36.0145 80.5249 35.286 80.5363 34.555C80.5363 29.8951 84.3489 26.0825 89.0087 26.0825C93.6686 26.0825 97.4812 29.8951 97.4812 34.555Z" fill="white"/>
</svg>
