<svg width="96" height="97" viewBox="0 0 96 97" fill="none" xmlns="http://www.w3.org/2000/svg">
<path d="M79.3022 12.814H75.3371V8.8489C75.3371 6.66809 73.5528 4.88379 71.372 4.88379C69.1912 4.88379 67.4069 6.66809 67.4069 8.8489V12.814H27.7558V8.8489C27.7558 6.66809 25.9715 4.88379 23.7907 4.88379C21.6099 4.88379 19.8256 6.66809 19.8256 8.8489V12.814H15.8605C11.4988 12.814 7.93024 16.3826 7.93024 20.7442V84.186C7.93024 88.5476 11.4988 92.1162 15.8605 92.1162H79.3022C83.6639 92.1162 87.2325 88.5476 87.2325 84.186V20.7442C87.2325 16.3826 83.6639 12.814 79.3022 12.814ZM75.3371 84.186H19.8256C17.6448 84.186 15.8605 82.4017 15.8605 80.2209V32.6396H79.3022V80.2209C79.3022 82.4017 77.5179 84.186 75.3371 84.186Z" fill="white"/>
<g clip-path="url(#clip0_7_147)">
<path d="M47.1747 44.4331C55.0359 44.4331 61.4084 50.8055 61.4084 58.6668C61.4084 66.5281 55.0359 72.9006 47.1747 72.9006C39.3134 72.9006 32.9409 66.5281 32.9409 58.6668C32.9409 50.8055 39.3134 44.4331 47.1747 44.4331ZM47.1747 50.1266C46.826 50.1266 46.4895 50.2546 46.229 50.4863C45.9685 50.718 45.802 51.0372 45.7612 51.3834L45.7513 51.55V52.9733H44.3279C43.4029 52.9711 42.5133 53.3291 41.8478 53.9716C41.1823 54.6141 40.7931 55.4905 40.7627 56.415C40.7324 57.3395 41.0632 58.2396 41.6852 58.9243C42.3071 59.609 43.1713 60.0247 44.0945 60.0831L44.3279 60.0902H45.7513V61.5136H42.9045C42.5417 61.514 42.1928 61.6529 41.929 61.902C41.6652 62.151 41.5064 62.4914 41.4852 62.8535C41.4639 63.2157 41.5818 63.5723 41.8146 63.8505C42.0475 64.1287 42.3777 64.3075 42.738 64.3504L42.9045 64.3603H45.7513V65.7837C45.7517 66.1465 45.8906 66.4954 46.1396 66.7592C46.3887 67.023 46.7291 67.1818 47.0912 67.2031C47.4534 67.2243 47.81 67.1065 48.0882 66.8736C48.3664 66.6408 48.5452 66.3105 48.5881 65.9502L48.598 65.7837V64.3603H50.0214C50.9464 64.3626 51.836 64.0045 52.5015 63.3621C53.167 62.7196 53.5562 61.8432 53.5866 60.9187C53.6169 59.9941 53.2861 59.0941 52.6641 58.4094C52.0422 57.7246 51.178 57.309 50.2548 57.2506L50.0214 57.2435H48.598V55.8201H51.4448C51.8076 55.8197 52.1565 55.6808 52.4203 55.4317C52.6841 55.1827 52.8429 54.8423 52.8641 54.4801C52.8854 54.118 52.7675 53.7614 52.5347 53.4832C52.3018 53.2049 51.9716 53.0262 51.6113 52.9833L51.4448 52.9733H48.598V51.55C48.598 51.1725 48.4481 50.8104 48.1811 50.5435C47.9142 50.2766 47.5522 50.1266 47.1747 50.1266ZM50.0214 60.0902C50.2101 60.0902 50.3912 60.1652 50.5246 60.2987C50.6581 60.4321 50.7331 60.6131 50.7331 60.8019C50.7331 60.9907 50.6581 61.1717 50.5246 61.3051C50.3912 61.4386 50.2101 61.5136 50.0214 61.5136H48.598V60.0902H50.0214ZM45.7513 55.8201V57.2435H44.3279C44.1392 57.2435 43.9581 57.1685 43.8247 57.035C43.6912 56.9016 43.6162 56.7205 43.6162 56.5318C43.6162 56.343 43.6912 56.162 43.8247 56.0285C43.9581 55.8951 44.1392 55.8201 44.3279 55.8201H45.7513Z" fill="white"/>
</g>
<defs>
<clipPath id="clip0_7_147">
<rect width="34.161" height="34.161" fill="white" transform="translate(30.0942 41.5864)"/>
</clipPath>
</defs>
</svg>
