<svg width="90" height="89" viewBox="0 0 90 89" fill="none" xmlns="http://www.w3.org/2000/svg">
<g clip-path="url(#clip0_7_166)">
<path fill-rule="evenodd" clip-rule="evenodd" d="M80.9471 44.5C80.9471 54.0522 77.1525 63.2131 70.3982 69.9675C63.6438 76.7219 54.4828 80.5165 44.9307 80.5165C35.3785 80.5165 26.2176 76.7219 19.4632 69.9675C12.7088 63.2131 8.91427 54.0522 8.91427 44.5C8.91427 34.9479 12.7088 25.787 19.4632 19.0326C26.2176 12.2782 35.3785 8.4836 44.9307 8.4836C54.4828 8.4836 63.6438 12.2782 70.3982 19.0326C77.1525 25.787 80.9471 34.9479 80.9471 44.5ZM89.2586 44.5C89.2586 56.2565 84.5884 67.5315 76.2753 75.8446C67.9622 84.1577 56.6872 88.8279 44.9307 88.8279C33.1742 88.8279 21.8992 84.1577 13.5861 75.8446C5.27303 67.5315 0.602783 56.2565 0.602783 44.5C0.602783 32.7435 5.27303 21.4686 13.5861 13.1555C21.8992 4.84237 33.1742 0.172119 44.9307 0.172119C56.6872 0.172119 67.9622 4.84237 76.2753 13.1555C84.5884 21.4686 89.2586 32.7435 89.2586 44.5ZM49.0864 20.9508C49.0864 19.8487 48.6486 18.7916 47.8692 18.0123C47.0899 17.2329 46.0329 16.7951 44.9307 16.7951C43.8285 16.7951 42.7715 17.2329 41.9921 18.0123C41.2128 18.7916 40.775 19.8487 40.775 20.9508V46.2177L41.994 47.4368L54.4834 59.9261C54.8638 60.3344 55.3226 60.6619 55.8324 60.8891C56.3421 61.1162 56.8924 61.2383 57.4504 61.2482C58.0084 61.258 58.5627 61.1554 59.0802 60.9464C59.5976 60.7374 60.0677 60.4263 60.4623 60.0316C60.8569 59.637 61.168 59.167 61.377 58.6495C61.586 58.132 61.6887 57.5778 61.6788 57.0198C61.669 56.4618 61.5469 55.9115 61.3197 55.4017C61.0926 54.8919 60.7651 54.4332 60.3568 54.0527L49.0864 42.7768V20.9508Z" fill="white"/>
</g>
<defs>
<clipPath id="clip0_7_166">
<rect width="88.6558" height="88.6558" fill="white" transform="translate(0.602783 0.172119)"/>
</clipPath>
</defs>
</svg>
